<mxfile host="65bd71144e">
    <diagram id="C5RBs43oDa-KdzZeNtuy" name="Page-1">
        <mxGraphModel dx="1372" dy="650" grid="1" gridSize="10" guides="1" tooltips="1" connect="1" arrows="1" fold="1" page="0" pageScale="1" pageWidth="827" pageHeight="1169" background="none" math="0" shadow="0">
            <root>
                <mxCell id="WIyWlLk6GJQsqaUBKTNV-0"/>
                <mxCell id="WIyWlLk6GJQsqaUBKTNV-1" parent="WIyWlLk6GJQsqaUBKTNV-0"/>
                <mxCell id="61" value="" style="swimlane;fontSize=12;strokeColor=none;gradientColor=none;swimlaneFillColor=none;dashed=1;opacity=80;fillColor=none;swimlaneLine=0;" vertex="1" parent="WIyWlLk6GJQsqaUBKTNV-1">
                    <mxGeometry x="10" y="50" width="400" height="750" as="geometry"/>
                </mxCell>
                <mxCell id="62" value="Production" style="swimlane;fontStyle=0;childLayout=stackLayout;horizontal=1;startSize=20;horizontalStack=0;resizeParent=1;resizeParentMax=0;resizeLast=0;collapsible=1;marginBottom=0;rounded=1;shadow=0;glass=0;fillColor=none;" vertex="1" parent="61">
                    <mxGeometry x="205" y="300" width="140" height="50" as="geometry"/>
                </mxCell>
                <mxCell id="63" value="identify-stimulus" style="text;strokeColor=none;fillColor=none;align=center;verticalAlign=middle;spacingLeft=4;spacingRight=4;overflow=hidden;points=[[0,0.5],[1,0.5]];portConstraint=eastwest;rotatable=0;rounded=1;shadow=0;glass=0;" vertex="1" parent="62">
                    <mxGeometry y="20" width="140" height="30" as="geometry"/>
                </mxCell>
                <mxCell id="64" value="Production" style="swimlane;fontStyle=0;childLayout=stackLayout;horizontal=1;startSize=20;horizontalStack=0;resizeParent=1;resizeParentMax=0;resizeLast=0;collapsible=1;marginBottom=0;rounded=1;shadow=0;glass=0;fillColor=none;" vertex="1" parent="61">
                    <mxGeometry x="205" y="390" width="140" height="50" as="geometry"/>
                </mxCell>
                <mxCell id="65" value="retrieve-response" style="text;strokeColor=none;fillColor=none;align=center;verticalAlign=middle;spacingLeft=4;spacingRight=4;overflow=hidden;points=[[0,0.5],[1,0.5]];portConstraint=eastwest;rotatable=0;rounded=1;shadow=0;glass=0;" vertex="1" parent="64">
                    <mxGeometry y="20" width="140" height="30" as="geometry"/>
                </mxCell>
                <mxCell id="66" value="Production" style="swimlane;fontStyle=0;childLayout=stackLayout;horizontal=1;startSize=20;horizontalStack=0;resizeParent=1;resizeParentMax=0;resizeLast=0;collapsible=1;marginBottom=0;rounded=1;shadow=0;glass=0;swimlaneFillColor=none;fillColor=none;" vertex="1" parent="61">
                    <mxGeometry x="55" y="300" width="140" height="50" as="geometry"/>
                </mxCell>
                <mxCell id="67" value="compiled-respond-if-O" style="text;strokeColor=none;fillColor=none;align=center;verticalAlign=middle;spacingLeft=4;spacingRight=4;overflow=hidden;points=[[0,0.5],[1,0.5]];portConstraint=eastwest;rotatable=0;rounded=1;shadow=0;glass=0;" vertex="1" parent="66">
                    <mxGeometry y="20" width="140" height="30" as="geometry"/>
                </mxCell>
                <mxCell id="68" value="Production" style="swimlane;fontStyle=0;childLayout=stackLayout;horizontal=1;startSize=20;horizontalStack=0;resizeParent=1;resizeParentMax=0;resizeLast=0;collapsible=1;marginBottom=0;rounded=1;shadow=0;glass=0;fillColor=none;" vertex="1" parent="61">
                    <mxGeometry x="205" y="570" width="140" height="50" as="geometry"/>
                </mxCell>
                <mxCell id="69" value="dont-respond-if-Q" style="text;strokeColor=none;fillColor=none;align=center;verticalAlign=middle;spacingLeft=4;spacingRight=4;overflow=hidden;points=[[0,0.5],[1,0.5]];portConstraint=eastwest;rotatable=0;rounded=1;shadow=0;glass=0;" vertex="1" parent="68">
                    <mxGeometry y="20" width="140" height="30" as="geometry"/>
                </mxCell>
                <mxCell id="70" value="Positive Reward&lt;br&gt;(to attend)" style="rounded=0;whiteSpace=wrap;html=1;fontSize=12;fillColor=none;" vertex="1" parent="61">
                    <mxGeometry x="140" y="660" width="120" height="50" as="geometry"/>
                </mxCell>
                <mxCell id="71" value="&lt;div style=&quot;font-size: 12px&quot;&gt;&lt;br&gt;&lt;/div&gt;" style="edgeStyle=orthogonalEdgeStyle;curved=1;rounded=0;orthogonalLoop=1;jettySize=auto;html=1;labelBackgroundColor=none;exitX=0.5;exitY=1;exitDx=0;exitDy=0;fontSize=12;" edge="1" parent="61" source="76" target="68">
                    <mxGeometry x="-0.2" y="55" relative="1" as="geometry">
                        <mxPoint as="offset"/>
                        <mxPoint x="203.99999999999977" y="470" as="sourcePoint"/>
                    </mxGeometry>
                </mxCell>
                <mxCell id="72" style="edgeStyle=orthogonalEdgeStyle;curved=1;html=1;labelBackgroundColor=none;fontSize=12;endArrow=classic;endFill=1;" edge="1" parent="61" source="66" target="70">
                    <mxGeometry relative="1" as="geometry">
                        <Array as="points">
                            <mxPoint x="125" y="640"/>
                            <mxPoint x="200" y="640"/>
                        </Array>
                    </mxGeometry>
                </mxCell>
                <mxCell id="73" style="edgeStyle=orthogonalEdgeStyle;curved=1;html=1;labelBackgroundColor=none;fontSize=12;endArrow=classic;endFill=1;" edge="1" parent="61" source="68" target="70">
                    <mxGeometry relative="1" as="geometry"/>
                </mxCell>
                <mxCell id="74" value="" style="edgeStyle=orthogonalEdgeStyle;curved=1;rounded=0;orthogonalLoop=1;jettySize=auto;html=1;endArrow=classic;endFill=1;" edge="1" parent="61" source="62" target="64">
                    <mxGeometry relative="1" as="geometry">
                        <mxPoint x="204" y="240" as="sourcePoint"/>
                        <mxPoint x="204" y="340" as="targetPoint"/>
                    </mxGeometry>
                </mxCell>
                <mxCell id="75" style="edgeStyle=orthogonalEdgeStyle;curved=1;rounded=0;orthogonalLoop=1;jettySize=auto;html=1;startArrow=none;endArrow=none;endFill=0;entryX=0.5;entryY=0;entryDx=0;entryDy=0;" edge="1" parent="61" source="64" target="76">
                    <mxGeometry relative="1" as="geometry">
                        <mxPoint x="203.99999999999977" y="340" as="targetPoint"/>
                    </mxGeometry>
                </mxCell>
                <mxCell id="76" value="Positive Reward&lt;br&gt;(to attend)" style="rounded=0;whiteSpace=wrap;html=1;fontSize=12;fillColor=none;" vertex="1" parent="61">
                    <mxGeometry x="215" y="470" width="120" height="50" as="geometry"/>
                </mxCell>
                <mxCell id="77" style="edgeStyle=orthogonalEdgeStyle;html=1;curved=1;" edge="1" parent="61" source="78" target="66">
                    <mxGeometry relative="1" as="geometry"/>
                </mxCell>
                <mxCell id="78" value="Production" style="swimlane;fontStyle=0;childLayout=stackLayout;horizontal=1;startSize=20;horizontalStack=0;resizeParent=1;resizeParentMax=0;resizeLast=0;collapsible=1;marginBottom=0;rounded=1;shadow=0;glass=0;fillColor=none;" vertex="1" parent="61">
                    <mxGeometry x="130" y="170" width="140" height="50" as="geometry"/>
                </mxCell>
                <mxCell id="79" value="attend" style="text;strokeColor=none;fillColor=none;align=center;verticalAlign=middle;spacingLeft=4;spacingRight=4;overflow=hidden;points=[[0,0.5],[1,0.5]];portConstraint=eastwest;rotatable=0;rounded=1;shadow=0;glass=0;" vertex="1" parent="78">
                    <mxGeometry y="20" width="140" height="30" as="geometry"/>
                </mxCell>
                <mxCell id="80" style="edgeStyle=orthogonalEdgeStyle;curved=1;rounded=0;orthogonalLoop=1;jettySize=auto;html=1;entryX=0.5;entryY=0;entryDx=0;entryDy=0;" edge="1" parent="61" source="78" target="62">
                    <mxGeometry relative="1" as="geometry"/>
                </mxCell>
                <mxCell id="81" value="No" style="edgeStyle=orthogonalEdgeStyle;curved=1;html=1;entryX=0.5;entryY=0;entryDx=0;entryDy=0;" edge="1" parent="61" source="82" target="78">
                    <mxGeometry y="10" relative="1" as="geometry">
                        <mxPoint as="offset"/>
                    </mxGeometry>
                </mxCell>
                <mxCell id="82" value="&lt;font style=&quot;font-size: 12px&quot;&gt;Attend utility&lt;br&gt;&amp;lt;&lt;br&gt;Wander utility&lt;br&gt;&lt;/font&gt;" style="rhombus;whiteSpace=wrap;html=1;fillColor=default;" vertex="1" parent="61">
                    <mxGeometry x="130" y="40" width="140" height="90" as="geometry"/>
                </mxCell>
                <mxCell id="83" value="stimulus appearance" style="endArrow=none;dashed=1;html=1;dashPattern=1 3;strokeWidth=2;rounded=0;curved=1;fontStyle=2;spacingLeft=15;labelBackgroundColor=none;fontSize=13;" edge="1" parent="WIyWlLk6GJQsqaUBKTNV-1">
                    <mxGeometry x="0.7" y="10" width="50" height="50" relative="1" as="geometry">
                        <mxPoint x="-1" y="300" as="sourcePoint"/>
                        <mxPoint x="400" y="300" as="targetPoint"/>
                        <mxPoint as="offset"/>
                    </mxGeometry>
                </mxCell>
                <mxCell id="84" style="edgeStyle=orthogonalEdgeStyle;curved=1;html=1;labelBackgroundColor=none;fontSize=12;endArrow=classic;endFill=1;" edge="1" parent="WIyWlLk6GJQsqaUBKTNV-1" source="70">
                    <mxGeometry relative="1" as="geometry">
                        <mxPoint x="160" y="90" as="targetPoint"/>
                        <Array as="points">
                            <mxPoint x="214" y="770"/>
                            <mxPoint x="20" y="770"/>
                            <mxPoint x="20" y="90"/>
                        </Array>
                    </mxGeometry>
                </mxCell>
            </root>
        </mxGraphModel>
    </diagram>
</mxfile>